<svg width="74" height="74" viewBox="0 0 74 74" fill="none" xmlns="http://www.w3.org/2000/svg">
<path d="M34.4497 0.0335121C25.1662 0.838262 17.5927 4.18625 11.256 10.2935C5.694 15.668 2.001 22.523 0.607498 30.0958C-1.1175 39.4078 0.866247 49.1075 6.111 56.9975C12.06 65.936 21.099 71.5978 31.9342 73.1788C34.2907 73.5237 39.177 73.5237 41.562 73.1788C49.6237 72.0148 56.55 68.6668 62.241 63.1768C70.7047 55.0145 74.7435 43.3888 73.1625 31.7773C71.064 16.3438 59.3955 3.86975 44.1345 0.737003C43.1857 0.550253 41.8785 0.320006 41.2027 0.233756C39.8955 0.0762562 35.5275 -0.0677379 34.4497 0.0335121ZM29.9655 6.29901C25.8555 10.9408 22.4932 16.7893 20.697 22.4368L20.553 22.868L14.1435 22.9108C10.6087 22.925 7.71975 22.8965 7.71975 22.8245C7.71975 22.5943 9.50175 19.5193 10.2772 18.413C14.7322 12.1048 21.1987 7.5635 28.5135 5.62325C31.2307 4.90475 31.2015 4.90476 29.9655 6.29901ZM44.4367 5.49426C53.346 7.75026 60.8047 13.5275 65.1157 21.5173C65.475 22.1923 65.7765 22.796 65.7765 22.8395C65.7765 22.8973 62.8882 22.9258 59.3527 22.9115L52.944 22.8688L52.8 22.4375C51.0037 16.79 47.6407 10.9415 43.5315 6.29976C42.7845 5.46651 42.5542 5.12151 42.741 5.12151C42.885 5.12001 43.6462 5.29251 44.4367 5.49426ZM38.703 7.87926C41.721 10.9693 44.0775 14.2453 45.9457 17.9098C46.8367 19.6775 47.7705 21.7895 48.0292 22.6085L48.1155 22.9393H36.7485H25.3815L25.4677 22.6085C25.7265 21.7895 26.6602 19.6768 27.5512 17.9098C28.6575 15.74 30.267 13.211 31.8765 11.156C32.8822 9.863 36.5325 5.98251 36.7477 5.98251C36.8062 5.98251 37.683 6.84501 38.703 7.87926ZM19.116 28.5725C18.1822 33.5015 18.1822 39.968 19.116 44.897L19.317 45.932H12.606H5.8815L5.58 44.8108C4.83225 42.023 4.6455 40.457 4.6455 36.7348C4.6455 33.0125 4.83225 31.4465 5.57925 28.6445L5.88075 27.5383H12.606H19.317L19.116 28.5725ZM49.653 28.2133C50.8455 33.7603 50.8455 39.7093 49.653 45.242L49.509 45.932H36.7485H23.988L23.8155 45.17C23.226 42.4108 22.953 39.7528 22.953 36.7348C22.953 33.7168 23.226 31.0588 23.8155 28.2853L23.988 27.5383H36.7485H49.509L49.653 28.2133ZM67.8315 28.3573C69.297 33.6598 69.297 39.8105 67.8315 45.0988L67.602 45.932H60.891H54.18L54.381 44.897C54.8842 42.224 55.0417 40.2125 55.0417 36.7348C55.0417 33.257 54.8835 31.2455 54.381 28.5725L54.18 27.5375H60.891H67.602L67.8315 28.3573ZM20.697 51.0335C22.4932 56.681 25.8562 62.5295 29.9655 67.157C30.5692 67.847 30.9285 68.3495 30.7987 68.3495C30.2812 68.3495 26.631 67.3145 25.209 66.7685C18.081 64.0093 12.003 58.6633 8.38125 51.953C8.022 51.278 7.7205 50.6743 7.7205 50.6308C7.7205 50.573 10.6087 50.5445 14.1442 50.5588L20.5537 50.6015L20.697 51.0335ZM48.0292 50.8468C47.469 52.6715 45.342 56.8963 43.8187 59.225C42.1372 61.7825 40.7865 63.464 38.6595 65.6195L36.7485 67.5598L34.8375 65.6195C32.7105 63.464 31.3597 61.7825 29.6782 59.225C28.155 56.897 26.028 52.6723 25.4677 50.8468L25.3815 50.5303H36.7485H48.1155L48.0292 50.8468ZM65.7765 50.6315C65.7765 50.6743 65.475 51.278 65.1157 51.9538C61.4947 58.6648 55.416 64.0108 48.288 66.7693C46.8652 67.3153 43.215 68.3503 42.6982 68.3503C42.5692 68.3503 42.9285 67.847 43.5315 67.1578C47.5267 62.66 50.9325 56.8258 52.6282 51.5375C52.7722 51.1063 52.9155 50.7043 52.9447 50.6323C53.016 50.5018 65.7765 50.4875 65.7765 50.6315Z" fill="#FFC59E"/>
</svg>
